HIERARCHY
ROOT Hips
{
  OFFSET -0.589095 22.1471 2.58842
  CHANNELS 6 Xposition Yposition Zposition Zrotation Xrotation Yrotation
  JOINT BN_Bip01_Pelvis
  {
    OFFSET -3.49357 -5.29363 -0.000213444
    CHANNELS 6 Xposition Yposition Zposition Zrotation Xrotation Yrotation
    JOINT BN_leg_R_01
    {
      OFFSET 10.8127 -7.82778 -6.29737
      CHANNELS 6 Xposition Yposition Zposition Zrotation Xrotation Yrotation
      JOINT BN_leg_R_02
      {
        OFFSET 8.91071 0 0
        CHANNELS 6 Xposition Yposition Zposition Zrotation Xrotation Yrotation
        JOINT BN_leg_R_03
        {
          OFFSET 15.6024 0 0
          CHANNELS 6 Xposition Yposition Zposition Zrotation Xrotation Yrotation
          JOINT BN_leg_R_04
          {
            OFFSET 9.68174 0 0
            CHANNELS 6 Xposition Yposition Zposition Zrotation Xrotation Yrotation
            JOINT BN_leg_R_05
            {
              OFFSET 10.6982 0 0
              CHANNELS 6 Xposition Yposition Zposition Zrotation Xrotation Yrotation
              JOINT BN_Leg_R_05Nub
              {
                OFFSET 11.1504 0 0
                CHANNELS 6 Xposition Yposition Zposition Zrotation Xrotation Yrotation
                End Site
                {
                  OFFSET 0 0 0
                }
              }
            }
          }
        }
      }
    }
    JOINT BN_leg_R_06
    {
      OFFSET 6.51511 -7.99898 -4.29089
      CHANNELS 6 Xposition Yposition Zposition Zrotation Xrotation Yrotation
      JOINT BN_Leg_R_07
      {
        OFFSET 9.03709 0 0
        CHANNELS 6 Xposition Yposition Zposition Zrotation Xrotation Yrotation
        JOINT BN_Leg_R_08
        {
          OFFSET 18.7638 0 0
          CHANNELS 6 Xposition Yposition Zposition Zrotation Xrotation Yrotation
          JOINT BN_Leg_R_09
          {
            OFFSET 10.9666 0 0
            CHANNELS 6 Xposition Yposition Zposition Zrotation Xrotation Yrotation
            JOINT BN_Leg_R_10
            {
              OFFSET 10.8726 0 0
              CHANNELS 6 Xposition Yposition Zposition Zrotation Xrotation Yrotation
              JOINT BN_Leg_R_10Nub
              {
                OFFSET 11.2648 0 0
                CHANNELS 6 Xposition Yposition Zposition Zrotation Xrotation Yrotation
                End Site
                {
                  OFFSET 0 0 0
                }
              }
            }
          }
        }
      }
    }
    JOINT BN_Leg_R_11
    {
      OFFSET 2.71429 -8.18693 -0.209972
      CHANNELS 6 Xposition Yposition Zposition Zrotation Xrotation Yrotation
      JOINT BN_Leg_R_12
      {
        OFFSET 9.8713 0 0
        CHANNELS 6 Xposition Yposition Zposition Zrotation Xrotation Yrotation
        JOINT BN_Leg_R_13
        {
          OFFSET 21.8657 0 0
          CHANNELS 6 Xposition Yposition Zposition Zrotation Xrotation Yrotation
          JOINT BN_Leg_R_14
          {
            OFFSET 11.0011 0 0
            CHANNELS 6 Xposition Yposition Zposition Zrotation Xrotation Yrotation
            JOINT BN_Leg_R_15
            {
              OFFSET 12.8798 0 0
              CHANNELS 6 Xposition Yposition Zposition Zrotation Xrotation Yrotation
              JOINT BN_Leg_R_15Nub
              {
                OFFSET 13.0642 0 0
                CHANNELS 6 Xposition Yposition Zposition Zrotation Xrotation Yrotation
                End Site
                {
                  OFFSET 0 0 0
                }
              }
            }
          }
        }
      }
    }
    JOINT BN_Leg_L_11
    {
      OFFSET 2.7143 8.18692 -0.209982
      CHANNELS 6 Xposition Yposition Zposition Zrotation Xrotation Yrotation
      JOINT BN_Leg_L_12
      {
        OFFSET 9.87129 0 0
        CHANNELS 6 Xposition Yposition Zposition Zrotation Xrotation Yrotation
        JOINT BN_Leg_L_13
        {
          OFFSET 21.8657 0 0
          CHANNELS 6 Xposition Yposition Zposition Zrotation Xrotation Yrotation
          JOINT BN_Leg_L_14
          {
            OFFSET 11.0011 0 0
            CHANNELS 6 Xposition Yposition Zposition Zrotation Xrotation Yrotation
            JOINT BN_Leg_L_15
            {
              OFFSET 12.8798 0 0
              CHANNELS 6 Xposition Yposition Zposition Zrotation Xrotation Yrotation
              JOINT BN_Leg_L_15Nub
              {
                OFFSET 13.0642 0 0
                CHANNELS 6 Xposition Yposition Zposition Zrotation Xrotation Yrotation
                End Site
                {
                  OFFSET 0 0 0
                }
              }
            }
          }
        }
      }
    }
    JOINT BN_leg_L_06
    {
      OFFSET 6.51511 7.99896 -4.29091
      CHANNELS 6 Xposition Yposition Zposition Zrotation Xrotation Yrotation
      JOINT BN_Leg_L_07
      {
        OFFSET 9.03709 0 0
        CHANNELS 6 Xposition Yposition Zposition Zrotation Xrotation Yrotation
        JOINT BN_Leg_L_08
        {
          OFFSET 18.7638 0 0
          CHANNELS 6 Xposition Yposition Zposition Zrotation Xrotation Yrotation
          JOINT BN_Leg_L_09
          {
            OFFSET 10.9666 0 0
            CHANNELS 6 Xposition Yposition Zposition Zrotation Xrotation Yrotation
            JOINT BN_Leg_L_10
            {
              OFFSET 10.8726 0 0
              CHANNELS 6 Xposition Yposition Zposition Zrotation Xrotation Yrotation
              JOINT BN_Leg_L_10Nub
              {
                OFFSET 11.2649 0 0
                CHANNELS 6 Xposition Yposition Zposition Zrotation Xrotation Yrotation
                End Site
                {
                  OFFSET 0 0 0
                }
              }
            }
          }
        }
      }
    }
    JOINT BN_leg_L_01
    {
      OFFSET 10.8127 7.82776 -6.29737
      CHANNELS 6 Xposition Yposition Zposition Zrotation Xrotation Yrotation
      JOINT BN_leg_L_02
      {
        OFFSET 8.91072 0 0
        CHANNELS 6 Xposition Yposition Zposition Zrotation Xrotation Yrotation
        JOINT BN_leg_L_03
        {
          OFFSET 15.6024 0 0
          CHANNELS 6 Xposition Yposition Zposition Zrotation Xrotation Yrotation
          JOINT BN_leg_L_04
          {
            OFFSET 9.68174 0 0
            CHANNELS 6 Xposition Yposition Zposition Zrotation Xrotation Yrotation
            JOINT BN_leg_L_05
            {
              OFFSET 10.6982 0 0
              CHANNELS 6 Xposition Yposition Zposition Zrotation Xrotation Yrotation
              JOINT BN_Leg_L_05Nub
              {
                OFFSET 11.1504 0 0
                CHANNELS 6 Xposition Yposition Zposition Zrotation Xrotation Yrotation
                End Site
                {
                  OFFSET 0 0 0
                }
              }
            }
          }
        }
      }
    }
    JOINT BN_Eye_L_01
    {
      OFFSET 28.5502 2.54627 -3.93739
      CHANNELS 6 Xposition Yposition Zposition Zrotation Xrotation Yrotation
      JOINT BN_Eye_L_02
      {
        OFFSET 2.30267 0 0
        CHANNELS 6 Xposition Yposition Zposition Zrotation Xrotation Yrotation
        JOINT BN_Eye_L_03
        {
          OFFSET 5.31894 0 0
          CHANNELS 6 Xposition Yposition Zposition Zrotation Xrotation Yrotation
          JOINT BN_Eye_L_04
          {
            OFFSET 9.71244 0 0
            CHANNELS 6 Xposition Yposition Zposition Zrotation Xrotation Yrotation
            End Site
            {
              OFFSET 0 0 0
            }
          }
        }
      }
    }
    JOINT BN_Eye_R_01
    {
      OFFSET 28.5502 -2.54612 -3.93738
      CHANNELS 6 Xposition Yposition Zposition Zrotation Xrotation Yrotation
      JOINT BN_Eye_R_02
      {
        OFFSET 2.30267 0 0
        CHANNELS 6 Xposition Yposition Zposition Zrotation Xrotation Yrotation
        JOINT BN_Eye_R_03
        {
          OFFSET 5.31896 0 0
          CHANNELS 6 Xposition Yposition Zposition Zrotation Xrotation Yrotation
          JOINT BN_Eye_R_04
          {
            OFFSET 9.71244 0 0
            CHANNELS 6 Xposition Yposition Zposition Zrotation Xrotation Yrotation
            End Site
            {
              OFFSET 0 0 0
            }
          }
        }
      }
    }
    JOINT BN_Arm_L_01
    {
      OFFSET 15.9737 8.03546 -8.36195
      CHANNELS 6 Xposition Yposition Zposition Zrotation Xrotation Yrotation
      JOINT BN_Arm_L_02
      {
        OFFSET 16.8869 0 0
        CHANNELS 6 Xposition Yposition Zposition Zrotation Xrotation Yrotation
        JOINT BN_Arm_L_03
        {
          OFFSET 8.42975 0 0
          CHANNELS 6 Xposition Yposition Zposition Zrotation Xrotation Yrotation
          JOINT BN_Arm_L_04
          {
            OFFSET 7.53864 -0.0312023 2.09083
            CHANNELS 6 Xposition Yposition Zposition Zrotation Xrotation Yrotation
            End Site
            {
              OFFSET 0 0 0
            }
          }
        }
      }
    }
    JOINT BN_Arm_R_01
    {
      OFFSET 14.7806 -6.70232 -9.44366
      CHANNELS 6 Xposition Yposition Zposition Zrotation Xrotation Yrotation
      JOINT BN_Arm_R_02
      {
        OFFSET 19.9827 0 0
        CHANNELS 6 Xposition Yposition Zposition Zrotation Xrotation Yrotation
        JOINT BN_Arm_R_03
        {
          OFFSET 17.4553 0 0
          CHANNELS 6 Xposition Yposition Zposition Zrotation Xrotation Yrotation
          JOINT BN_Arm_R_04
          {
            OFFSET 13.3834 -2.22657 7.3982
            CHANNELS 6 Xposition Yposition Zposition Zrotation Xrotation Yrotation
            End Site
            {
              OFFSET 0 0 0
            }
          }
        }
      }
    }
  }
}
MOTION
Frames:	4
Frame Time:	0.0333333
-22.7505 24.9572 -0.219456 -0 -0.00378757 -0 -3.49325 -8.0258 1.49012e-008 -147.878 -76.3262 140.27 10.8127 -7.82778 -6.29736 -138.225 13.0945 53.0398 8.91072 -1.90735e-006 9.59233e-014 63.1237 0.0945872 1.32641 15.6024 -3.55272e-015 0 -77.92 -0.874597 5.37627 9.68174 -3.8147e-006 4.61853e-014 -32.4489 -0.812214 -13.7845 10.6982 3.8147e-006 -9.53674e-007 -49.1842 4.1137 -1.73436 11.1504 7.62941e-006 -9.53675e-007 1.73548e-007 1.20109e-005 1.18804e-006 6.5151 -7.99897 -4.29089 -167.652 3.76466 33.0208 9.03709 -9.53674e-007 4.61853e-014 99.2202 -2.34609 -2.98866 18.7638 -9.53675e-007 -1.90735e-006 -80.9172 2.17629 6.40318 10.9665 -3.8147e-006 3.8147e-006 -13.2586 -0.643166 -0.433856 10.8726 0 1.68754e-013 -11.79 -0.0145751 -1.52738 11.2648 3.8147e-006 1.22569e-013 4.76144e-007 -2.35138e-007 -3.43021e-008 2.71429 -8.18693 -0.209965 -140.482 28.3501 5.11444 9.87129 -3.55271e-015 -1.90735e-006 70.065 2.17784 -0.77518 21.8657 1.90735e-006 -1.90735e-006 -65.3161 -5.04445 -13.9357 11.0011 7.62939e-006 -1.90735e-006 -15.1408 -0.365485 -0.743859 12.8798 -3.8147e-006 -3.8147e-006 -23.5688 -0.0275777 0.0731698 13.0642 3.81469e-006 1.90735e-006 8.32949e-007 1.07629e-005 -6.21626e-007 2.7143 8.18692 -0.209976 94.6014 -34.0084 -32.4363 9.8713 -3.55271e-015 -1.90735e-006 -55.2853 -2.17062 -0.528762 21.8657 -1.90735e-006 1.90735e-006 59.337 5.62709 -12.4294 11.0011 3.05533e-013 1.90735e-006 18.3162 0.416651 -0.843635 12.8798 3.8147e-006 0 27.4811 0.0282628 0.033477 13.0642 -1.42109e-014 -2.13163e-014 -7.01985e-007 1.79299e-006 5.70396e-007 6.51512 7.99896 -4.2909 113.652 -21.1901 19.5463 9.03709 -9.53674e-007 1.90735e-006 -72.7936 1.79639 -2.7608 18.7638 -3.8147e-006 1.90735e-006 82.1237 -1.23159 1.54141 10.9666 -1.42108e-014 1.90735e-006 24.6383 0.538528 -1.20584 10.8726 0 8.34888e-014 22.946 0.01575 -2.41924 11.2648 0 1.90735e-006 3.96044e-007 5.3527e-007 -7.49653e-009 10.8127 7.82776 -6.29737 130.073 -17.6185 64.0096 8.91072 -1.42109e-014 2.86102e-006 -35.7654 0.3883 0.584632 15.6024 3.8147e-006 -3.10862e-014 2.38932 8.28762 1.19467 9.68174 0 -9.53674e-007 39.0402 1.34316 -15.3194 10.6982 7.10543e-015 -9.53674e-007 57.0129 -4.11062 -2.65755 11.1504 -3.8147e-006 -4.76837e-006 2.94581e-008 4.71495e-006 -3.15375e-008 28.5502 2.54627 -3.93738 89.995 -40.8534 50.3814 2.30267 -7.10543e-015 2.38419e-007 -55.0172 4.22033 -15.8849 5.31895 -1.90735e-006 -3.57628e-007 2.52889 0.50109 -6.97998 9.71243 -1.06581e-014 -4.76837e-007 23.664 7.14602 8.78873 28.5502 -2.54612 -3.93737 89.9968 -39.1541 129.609 2.30267 -1.90735e-006 -4.76837e-007 -56.6574 -3.52307 16.7464 5.31894 -1.90735e-006 -1.59872e-014 10.4259 -0.603328 12.4263 9.71243 -9.53675e-007 4.17233e-007 26.5068 -10.7792 -7.09859 15.9737 8.03546 -8.36195 89.2596 29.1081 -16.1738 16.8869 -2.38419e-006 6.03961e-014 -63.7227 0.0895751 -1.0849 8.42975 -7.10543e-015 -1.90735e-006 -40.7079 -11.1176 4.98243 7.53865 -0.0312081 2.09083 -7.41474 -5.1442 12.0563 14.7806 -6.70232 -9.44365 -75.8552 -47.678 -33.2319 19.9827 1.90735e-006 -1.90735e-006 20.1025 -0.14993 -14.564 17.4553 1.90735e-006 -1.43051e-006 91.2283 4.85951 2.95068 13.3835 -2.22654 7.39821 8.80185 1.81773 -16.8513 
-21.2352 24.6678 -0.219456 -0 -0.00378757 -0 -3.49325 -8.0258 1.49012e-008 -174.98 -79.6319 126.414 10.8127 -7.82778 -6.29736 -131.287 23.6082 43.9807 8.91072 -1.90735e-006 5.68434e-014 63.2788 0.0981771 1.32615 15.6024 -7.10543e-015 1.77636e-015 -79.1279 5.95875 14.8664 9.68174 -3.8147e-006 4.26326e-014 -30.1943 -0.621429 -13.2412 10.6982 3.8147e-006 -9.53674e-007 -46.4952 4.11391 -1.40303 11.1504 7.62941e-006 -9.53674e-007 1.73548e-007 1.20109e-005 1.18804e-006 6.5151 -7.99897 -4.29089 -163.889 11.1617 27.4375 9.03709 -9.53674e-007 1.77636e-014 100.152 -2.36285 -2.95576 18.7638 -9.53675e-007 -1.90735e-006 -82.5608 4.90262 15.6815 10.9665 -3.8147e-006 3.8147e-006 -16.0954 -0.62177 -0.626189 10.8726 0 9.9476e-014 -14.5607 -0.0168076 -1.76034 11.2648 3.8147e-006 7.99361e-014 4.76144e-007 -2.35138e-007 -3.43021e-008 2.71429 -8.18693 -0.209965 -141.563 32.4394 -0.972848 9.87129 3.55271e-015 -1.90735e-006 66.1877 2.22524 -0.626181 21.8657 1.90735e-006 -1.90735e-006 -66.0766 -1.95582 -5.45735 11.0011 7.62939e-006 -1.90735e-006 -12.7462 -0.405409 -0.687409 12.8798 -3.81469e-006 -3.8147e-006 -20.5949 -0.0237443 0.0745027 13.0642 3.81469e-006 1.90735e-006 8.32949e-007 1.07629e-005 -6.21626e-007 2.7143 8.18692 -0.209976 103.926 -34.6994 -27.4239 9.8713 -3.55271e-015 -1.90735e-006 -52.8484 -2.22659 -0.482838 21.8657 -1.90735e-006 1.90735e-006 59.1801 1.8479 -3.30569 11.0011 6.39488e-014 1.90735e-006 17.5579 0.431363 -0.826718 12.8798 3.8147e-006 0 26.5566 0.0277193 0.0339284 13.0642 -4.26326e-014 -7.10543e-015 -7.01985e-007 1.79299e-006 5.70396e-007 6.51512 7.99896 -4.2909 110.68 -21.1933 18.5417 9.03709 -9.53674e-007 1.90735e-006 -75.1887 1.84496 -2.80938 18.7638 -3.8147e-006 1.90735e-006 84.6928 -5.98151 11.1527 10.9666 0 1.90735e-006 26.9108 0.516012 -1.36368 10.8726 7.10542e-015 4.61853e-014 25.186 0.0168343 -2.58 11.2648 0 1.90735e-006 3.96044e-007 5.3527e-007 -7.49653e-009 10.8127 7.82776 -6.29737 120.799 -19.4294 66.6295 8.91072 -7.10543e-015 2.86102e-006 -54.3964 0.123772 1.10526 15.6024 3.8147e-006 2.75335e-014 48.7923 4.80669 1.58511 9.68174 3.55271e-015 -9.53674e-007 23.0726 0.0159793 -11.4574 10.6982 1.42109e-014 -9.53674e-007 37.9175 -4.115 -0.329751 11.1504 -3.8147e-006 -4.76837e-006 2.94581e-008 4.71495e-006 -3.15376e-008 28.5502 2.54627 -3.93738 89.9951 -40.8534 50.3814 2.30267 -7.10543e-015 2.38419e-007 -64.5562 7.53719 -22.4446 5.31895 -1.90735e-006 -3.57628e-007 -2.70193 0.198157 -7.96283 9.71243 7.10543e-015 -4.76837e-007 17.8758 2.79776 7.00877 28.5502 -2.54612 -3.93737 89.9968 -39.1541 129.609 2.30267 -1.90735e-006 -4.76837e-007 -70.1525 -7.36685 19.8469 5.31894 -1.90735e-006 -3.9968e-014 2.6298 -0.945575 14.626 9.71243 -9.53675e-007 4.17233e-007 19.9201 -9.82274 -3.56371 15.9737 8.03546 -8.36195 88.8098 20.4715 -19.7982 16.8869 -2.38419e-006 7.81597e-014 -55.1566 0.00876672 -1.27276 8.42975 -1.77636e-014 -1.90735e-006 -40.1628 -10.9043 5.00496 7.53865 -0.031208 2.09083 -7.40326 -5.30453 2.73119 14.7806 -6.70232 -9.44365 -70.4248 -64.1869 -34.4797 19.9827 1.90735e-006 -1.90735e-006 16.5395 0.352144 -13.6112 17.4553 1.90735e-006 -1.43051e-006 70.5013 3.42227 -2.26507 13.3835 -2.22654 7.39821 8.80008 1.85677 -8.63247 
-19.5996 24.4483 -0.219456 -0 -0.00378757 -0 -3.49325 -8.0258 1.49012e-008 136.119 -82.073 94.2965 10.8127 -7.82778 -6.29736 -122.779 34.2142 33.1237 8.91072 -1.90735e-006 1.59872e-014 61.9417 0.0671998 1.32807 15.6024 -7.10543e-015 -7.10543e-015 -78.2313 11.5682 29.2611 9.68174 -3.8147e-006 8.88178e-015 -25.1637 -0.194809 -11.9973 10.6982 3.8147e-006 -9.53674e-007 -40.4554 4.115 -0.646168 11.1504 7.62941e-006 -9.53674e-007 1.73548e-007 1.20109e-005 1.18804e-006 6.5151 -7.99897 -4.29089 -160.213 20.323 20.1968 9.03709 -9.53674e-007 -3.55271e-014 99.4419 -2.35147 -2.98059 18.7638 -9.53675e-007 -1.90735e-006 -77.5648 11.1563 26.71 10.9665 -3.8147e-006 3.8147e-006 -24.0155 -0.546243 -1.1638 10.8726 -7.10543e-015 3.55271e-014 -22.3286 -0.0163241 -2.37386 11.2648 3.8147e-006 2.4869e-014 4.76144e-007 -2.35138e-007 -3.43021e-008 2.71429 -8.18693 -0.209965 -144.52 35.3807 -6.14831 9.87129 0 -1.90735e-006 61.0816 2.27211 -0.425705 21.8657 1.90735e-006 -1.90735e-006 -62.3267 1.15252 6.04071 11.0011 7.62939e-006 -1.90735e-006 -12.8543 -0.403443 -0.691101 12.8798 -3.81469e-006 -3.8147e-006 -20.7287 -0.0239177 0.0744479 13.0642 3.81469e-006 1.90735e-006 8.32949e-007 1.07629e-005 -6.21626e-007 2.7143 8.18692 -0.209976 117.716 -33.8812 -17.3868 9.8713 7.10543e-015 -1.90735e-006 -49.9714 -2.29249 -0.423495 21.8657 -1.90735e-006 1.90735e-006 56.2087 -2.39404 7.77722 11.0011 -2.41585e-013 1.90735e-006 17.8453 0.425706 -0.833552 12.8798 3.8147e-006 3.55271e-015 26.9054 0.0279258 0.0337585 13.0642 -1.42109e-014 3.55271e-015 -7.01985e-007 1.79299e-006 5.70396e-007 6.51512 7.99896 -4.2909 109.392 -21.7639 17.1749 9.03709 -9.53674e-007 1.90735e-006 -76.8509 1.87936 -2.83587 18.7638 -3.8147e-006 1.90735e-006 84.4101 -13.5764 23.0212 10.9666 0 1.90735e-006 32.0588 0.45822 -1.71087 10.8726 7.10542e-015 -7.10543e-015 30.2832 0.0165336 -2.92489 11.2648 0 1.90735e-006 3.96044e-007 5.3527e-007 -7.49653e-009 10.8127 7.82776 -6.29737 105.427 -28.0669 56.9172 8.91072 -1.77636e-015 2.86102e-006 -64.6362 -0.145151 1.39383 15.6024 3.8147e-006 8.88178e-015 71.534 -4.48287 20.7299 9.68174 0 -9.53674e-007 17.8804 -0.427941 -10.0815 10.6982 2.13163e-014 -9.53674e-007 31.5435 -4.11477 0.449942 11.1504 -3.8147e-006 -4.76837e-006 2.94581e-008 4.71495e-006 -3.15375e-008 28.5502 2.54627 -3.93738 89.9951 -40.8534 50.3814 2.30267 -1.42109e-014 2.38419e-007 -72.7324 10.5759 -29.1797 5.31895 -1.90735e-006 -3.57628e-007 -8.61205 -0.104242 -9.67074 9.71243 3.55271e-015 -4.76837e-007 9.37384 -2.66447 4.07652 28.5502 -2.54612 -3.93737 89.9967 -39.1541 129.608 2.30267 -1.90735e-006 -4.76837e-007 -82.7894 -11.506 22.7699 5.31894 -1.90735e-006 -7.81597e-014 -5.65808 -1.52309 17.2189 9.71243 -9.53675e-007 4.17233e-007 10.7786 -8.5439 1.31122 15.9737 8.03546 -8.36195 86.4785 10.8176 -23.3892 16.8869 -2.38419e-006 8.70415e-014 -45.1552 -0.0640946 -1.54925 8.42975 -1.42109e-014 -1.90735e-006 -39.3256 -10.5703 5.03798 7.53865 -0.031208 2.09083 -7.42074 -5.31169 -8.16016 14.7806 -6.70232 -9.44365 -75.7369 -80.7715 -48.2306 19.9827 1.90735e-006 -1.90735e-006 12.585 0.823916 -12.2169 17.4553 1.90735e-006 -1.43051e-006 45.691 1.71814 -7.3578 13.3835 -2.22654 7.39821 8.79632 1.85542 1.00089 
-17.9488 24.3054 -0.219456 -0 -0.00378757 -0 -3.49325 -8.0258 1.49012e-008 81.1351 -80.9064 56.2168 10.8127 -7.82778 -6.29736 -109.003 46.1203 16.6641 8.91072 -1.90735e-006 -4.61853e-014 59.9096 0.0200576 1.32962 15.6024 -5.32907e-015 3.55271e-015 -76.3356 16.1603 41.8553 9.68174 -3.8147e-006 2.66453e-014 -25.1123 -0.188778 -11.9838 10.6982 3.8147e-006 -9.53674e-007 -40.3922 4.11551 -0.640655 11.1504 7.62941e-006 -9.53674e-007 1.73548e-007 1.20109e-005 1.18804e-006 6.5151 -7.99897 -4.29089 -157.534 28.5255 13.0314 9.03709 -9.53674e-007 -7.4607e-014 97.1406 -2.30985 -3.06257 18.7638 -9.53675e-007 -1.90735e-006 -68.4112 20.2464 36.4541 10.9665 -3.8147e-006 3.8147e-006 -33.1523 -0.444038 -1.78152 10.8726 0 1.06581e-014 -31.3686 -0.0141083 -2.99015 11.2648 3.8147e-006 2.84217e-014 4.76144e-007 -2.35138e-007 -3.43021e-008 2.71429 -8.18693 -0.209965 -148.841 36.0567 -8.32448 9.87129 3.55271e-015 -1.90735e-006 55.9625 2.30101 -0.22133 21.8657 1.90735e-006 -1.90735e-006 -53.6529 5.13775 17.8298 11.0011 7.62939e-006 -1.90735e-006 -15.716 -0.355177 -0.757508 12.8798 -3.81469e-006 -3.8147e-006 -24.2874 -0.0284919 0.0728209 13.0642 3.81469e-006 1.90735e-006 8.32949e-007 1.07629e-005 -6.21626e-007 2.7143 8.18692 -0.209976 130.782 -30.8323 -5.10335 9.8713 5.32907e-015 -1.90735e-006 -45.8423 -2.38189 -0.324228 21.8657 -1.90735e-006 1.90735e-006 49.8501 -6.23924 17.5354 11.0011 -5.18696e-013 1.90735e-006 19.0143 0.403548 -0.856761 12.8798 3.8147e-006 -3.55271e-015 28.3351 0.0287595 0.0330507 13.0642 -1.42109e-014 -2.13163e-014 -7.02006e-007 1.79299e-006 5.70396e-007 6.51512 7.99896 -4.2909 111.486 -22.4833 16.6728 9.03709 -9.53674e-007 1.90735e-006 -77.792 1.89671 -2.85207 18.7638 -3.8147e-006 1.90735e-006 82.5731 -23.1293 34.2608 10.9666 7.10542e-015 1.90735e-006 38.5216 0.37415 -2.13127 10.8726 0 -5.68434e-014 36.7062 0.0168915 -3.30376 11.2648 -7.10542e-015 1.90735e-006 3.96044e-007 5.3527e-007 -7.49653e-009 10.8127 7.82776 -6.29737 95.4449 -35.5769 41.3554 8.91072 2.30926e-014 2.86102e-006 -68.0621 -0.261997 1.48155 15.6024 3.8147e-006 -7.81597e-014 75.5249 -14.0381 44.9936 9.68174 0 -9.53674e-007 21.1717 -0.147605 -10.9684 10.6982 7.10543e-015 -9.53674e-007 35.605 -4.11685 -0.0410445 11.1504 -3.8147e-006 -4.76837e-006 2.94581e-008 4.71495e-006 -3.15375e-008 28.5502 2.54627 -3.93738 89.995 -40.8534 50.3813 2.30267 3.55271e-015 2.38419e-007 -78.3767 12.623 -34.611 5.31895 -1.90735e-006 -3.57628e-007 -15.2204 -0.340229 -12.9189 9.71243 7.99361e-015 -4.76837e-007 -1.29138 -8.24406 -0.257892 28.5502 -2.54612 -3.93737 89.9968 -39.1541 129.609 2.30267 -1.90735e-006 -4.76837e-007 -92.2217 -14.8189 25.0711 5.31894 -1.90735e-006 -1.15463e-013 -13.4787 -2.35228 20.4755 9.71242 -9.53675e-007 4.17233e-007 0.217382 -7.1845 6.97699 15.9737 8.03546 -8.36195 83.4666 3.04357 -26.4967 16.8869 -2.38419e-006 7.81597e-014 -36.6898 -0.120229 -1.90427 8.42975 -3.55271e-015 -1.90735e-006 -38.1971 -10.1251 5.08377 7.53865 -0.031208 2.09083 -7.43515 -5.17552 -17.3785 14.7806 -6.70232 -9.44365 158.503 -81.634 178.908 19.9827 1.90735e-006 -1.90735e-006 8.89514 1.20231 -10.463 17.4553 1.90735e-006 -1.43051e-006 23.9892 0.263835 -9.69552 13.3835 -2.22654 7.39821 8.80035 1.80969 9.23033 
